<svg xmlns="http://www.w3.org/2000/svg" xmlns:xlink="http://www.w3.org/1999/xlink" viewBox="0 0 48.73 48.73"><defs><style>.cls-1{fill:none;}.cls-2{clip-path:url(#clip-path);}.cls-3{fill:#a6a6a6;}.cls-4{fill:#fff;}</style><clipPath id="clip-path" transform="translate(0)"><rect class="cls-1" width="48.73" height="48.73"/></clipPath></defs><title>Aktiv 2</title><g id="Lag_2" data-name="Lag 2"><g id="Lag_1-2" data-name="Lag 1"><g class="cls-2"><path class="cls-3" d="M48.73,24.37A24.37,24.37,0,1,1,24.37,0,24.36,24.36,0,0,1,48.73,24.37" transform="translate(0)"/><path class="cls-4" d="M31.27,10.84s-5.47-1.25-8.35.39A4.62,4.62,0,0,0,20.42,15c0,1.35,0,4.75,0,4.75h-3l0,4.31h2.93V38.91h5.52V24.05l4.26,0,.36-4.25H26l0-3.47a1.5,1.5,0,0,1,1-1.3,9.29,9.29,0,0,1,3.6.2Z" transform="translate(0)"/></g></g></g></svg>