<?xml version="1.0" encoding="UTF-8"?>
<svg width="37px" height="34px" viewBox="0 0 37 34" version="1.1" xmlns="http://www.w3.org/2000/svg" xmlns:xlink="http://www.w3.org/1999/xlink">
    <!-- Generator: Sketch 43.1 (39012) - http://www.bohemiancoding.com/sketch -->
    <title>icon_cart</title>
    <desc>Created with Sketch.</desc>
    <defs>
        <polygon id="path-1" points="1.85719817e-20 0.250883261 1.85719817e-20 27.469659 36.8052009 27.469659 36.8052009 0.250883261 0 0.250883261"></polygon>
        <polygon id="path-3" points="5.59604444 5.66666667 0.659285185 5.66666667 0.659285185 0.563195833 5.59604444 0.563195833"></polygon>
        <polygon id="path-5" points="5.07818148 5.66666667 0.141422222 5.66666667 0.141422222 0.563195833 5.07818148 0.563195833 5.07818148 5.66666667"></polygon>
    </defs>
    <g id="Symbols" stroke="none" stroke-width="1" fill="none" fill-rule="evenodd">
        <g id="cart_desktop" transform="translate(-15.000000, -17.000000)">
            <g id="icon_cart" transform="translate(15.000000, 17.000000)">
                <g id="Group-3" transform="translate(0.000000, 0.457725)">
                    <mask id="mask-2" fill="white">
                        <use xlink:href="#path-1"></use>
                    </mask>
                    <g id="Clip-2"></g>
                    <path d="M11.2843148,21.5237 C11.5193333,22.5741583 11.6543148,23.514825 11.9489444,24.3974083 C12.2195926,25.20845 12.9506852,25.346575 13.7139815,25.3458667 C19.5353148,25.3387833 25.3573333,25.3458667 31.1786667,25.33595 C31.735037,25.3345333 32.2098704,25.4280333 32.4147407,26.0272833 C32.6696296,26.7759917 32.1886296,27.441825 31.3616111,27.4581167 C30.2125556,27.4807833 29.0635,27.463075 27.9144444,27.463075 C23.114037,27.463075 18.3136296,27.463075 13.5139074,27.4644917 C11.4343704,27.4652 10.2318704,26.502575 9.73305556,24.4271583 C8.02694444,17.3254083 6.3132963,10.2257833 4.63322222,3.11765833 C4.4907037,2.51345 4.22964815,2.36611667 3.68903704,2.37603333 C2.58451852,2.39445 1.98361111,2.3902 1.08533333,2.37815833 C0.321351852,2.366825 -0.0205555556,1.99849167 0.000685185185,1.2767 C0.0219259259,0.546408333 0.422074074,0.260241667 1.09218519,0.263783333 C2.47077778,0.270158333 3.84868519,0.248908333 5.22796296,0.251033333 C6.02962963,0.251741667 6.39277778,0.612283333 6.56612963,1.34399167 C6.845,2.519825 7.18553704,3.68290833 7.40685185,4.86936667 C7.53224074,5.54228333 7.82824074,5.68395 8.44148148,5.68253333 C17.046037,5.66199167 25.6505926,5.66836667 34.2551481,5.669075 C34.6895556,5.669075 35.1232778,5.66553333 35.5576852,5.67474167 C36.5745,5.694575 36.9205185,6.030325 36.7725185,7.0907 C36.6135556,8.23253333 36.3257778,9.35736667 36.0729444,10.484325 C35.3363704,13.7667417 34.5915741,17.0470333 33.8447222,20.3266167 C33.6192963,21.31545 33.3575556,21.5222833 32.3530741,21.5222833 C25.6629259,21.5244083 18.973463,21.5237 12.2833148,21.5237 L11.2843148,21.5237 Z" id="Fill-1" fill="#0060A9" mask="url(#mask-2)"></path>
                </g>
                <g id="Group-6" transform="translate(10.962963, 28.082725)">
                    <mask id="mask-4" fill="white">
                        <use xlink:href="#path-3"></use>
                    </mask>
                    <g id="Clip-5"></g>
                    <path d="M5.59604444,3.11532083 C5.59604444,4.52419583 4.49084074,5.6667375 3.12732222,5.6667375 C1.76448889,5.6667375 0.659285185,4.52419583 0.659285185,3.11532083 C0.659285185,1.7057375 1.76448889,0.563195833 3.12732222,0.563195833 C4.49084074,0.563195833 5.59604444,1.7057375 5.59604444,3.11532083" id="Fill-4" fill="#0060A9" mask="url(#mask-4)"></path>
                </g>
                <g id="Group-9" transform="translate(26.722222, 28.082725)">
                    <mask id="mask-6" fill="white">
                        <use xlink:href="#path-5"></use>
                    </mask>
                    <g id="Clip-8"></g>
                    <path d="M5.07818148,3.11532083 C5.07818148,4.52419583 3.97297778,5.6667375 2.61014444,5.6667375 C1.24662593,5.6667375 0.141422222,4.52419583 0.141422222,3.11532083 C0.141422222,1.7057375 1.24662593,0.563195833 2.61014444,0.563195833 C3.97297778,0.563195833 5.07818148,1.7057375 5.07818148,3.11532083" id="Fill-7" fill="#0060A9" mask="url(#mask-6)"></path>
                </g>
            </g>
        </g>
    </g>
</svg>