<svg xmlns="http://www.w3.org/2000/svg" xmlns:xlink="http://www.w3.org/1999/xlink" viewBox="0 0 48.73 48.73"><defs><style>.cls-1,.cls-5{fill:none;}.cls-2{clip-path:url(#clip-path);}.cls-3{fill:#a6a6a6;}.cls-4{fill:#fff;}.cls-5{stroke:#fff;stroke-miterlimit:10;stroke-width:1.93px;}</style><clipPath id="clip-path" transform="translate(0)"><rect class="cls-1" width="48.73" height="48.73"/></clipPath></defs><title>Aktiv 1</title><g id="Lag_2" data-name="Lag 2"><g id="Lag_1-2" data-name="Lag 1"><g class="cls-2"><path class="cls-3" d="M48.73,24.37A24.37,24.37,0,1,1,24.37,0,24.36,24.36,0,0,1,48.73,24.37" transform="translate(0)"/><path class="cls-4" d="M33.14,10.38H15.59a5.83,5.83,0,0,0-5.84,5.84V33.77a5.84,5.84,0,0,0,5.84,5.85H33.14A5.84,5.84,0,0,0,39,33.77V16.22a5.83,5.83,0,0,0-5.84-5.84m0,2.93a2.92,2.92,0,0,1,2.91,2.91V33.77a2.92,2.92,0,0,1-2.91,2.91H15.59a2.92,2.92,0,0,1-2.91-2.91V16.22a2.92,2.92,0,0,1,2.91-2.91Z" transform="translate(0)"/><path class="cls-4" d="M24.67,19a7,7,0,1,0,7,7,7,7,0,0,0-7-7m0,4.41A2.57,2.57,0,1,1,22.1,26a2.58,2.58,0,0,1,2.57-2.57" transform="translate(0)"/><path class="cls-4" d="M30.7,14.7h2.54a.84.84,0,0,1,.84.84v2.54a.84.84,0,0,1-.84.84H30.7a.85.85,0,0,1-.85-.85V15.54A.84.84,0,0,1,30.7,14.7Z"/></g><line class="cls-5" x1="11.39" y1="21.19" x2="37.53" y2="22.25"/></g></g></svg>